<svg width="56" height="56" viewBox="0 0 56 56" fill="none" xmlns="http://www.w3.org/2000/svg">
<path fill-rule="evenodd" clip-rule="evenodd" d="M19.2912 35.2446C18.8892 35.6597 18.905 36.3172 19.3266 36.713C19.7481 37.1089 20.4157 37.0933 20.8177 36.6782L27.9998 29.2614L35.182 36.6782C35.584 37.0933 36.2516 37.1089 36.6731 36.713C37.0946 36.3172 37.1105 35.6597 36.7085 35.2446L29.4572 27.7564L36.2367 20.7554C36.6387 20.3403 36.6229 19.6828 36.2013 19.287C35.7798 18.8911 35.1122 18.9067 34.7102 19.3218L27.9998 26.2515L21.2895 19.3218C20.8875 18.9067 20.2199 18.8911 19.7983 19.287C19.3768 19.6828 19.361 20.3403 19.7629 20.7554L26.5425 27.7564L19.2912 35.2446Z" fill="#B3B3B3"/>
</svg>
